<svg id="bd75ca69-ab87-4881-965c-6cd1bd9c826d" data-name="Layer 1" xmlns="http://www.w3.org/2000/svg" xmlns:xlink="http://www.w3.org/1999/xlink" viewBox="0 0 1440 900"><defs><style>.b8c3b229-968b-4462-bcc7-e64000a39e15{fill:none;}.bc3d704a-1ac8-496d-9352-5ca5afd54690{clip-path:url(#a5fc25dd-afb3-4fb3-8eaa-1725fc4c8e15);}.bf608f1a-845d-4d0a-ae8b-81bfcaf9d0aa{fill:#36393f;}.f155e4d9-9102-4097-9bcd-3fec9834b809{fill:#393e49;}</style><clipPath id="a5fc25dd-afb3-4fb3-8eaa-1725fc4c8e15"><rect class="b8c3b229-968b-4462-bcc7-e64000a39e15" width="1440" height="900"/></clipPath></defs><g class="bc3d704a-1ac8-496d-9352-5ca5afd54690"><rect class="bf608f1a-845d-4d0a-ae8b-81bfcaf9d0aa" x="-179.15" y="-408.8" width="1863.96" height="1863.96"/><path class="f155e4d9-9102-4097-9bcd-3fec9834b809" d="M717,213.23c-7.56,1.83-15.47,2.37-22.91,4.55-2.68.78-4.41,4.82-6.57,7.38,2.6,2.08,5,4.57,7.86,6.12,1.78.95,6.11.07,6.25.69,2.13,9.3,10.28,5.67,16.16,7.46-.54,3.46-1,6.61-1.52,9.77-1.86,11.52,1.91,14.94,12.69,11.42,0,3.71-.71,7.61.23,11.06.72,2.61,3.18,5.83,5.55,6.55,2,.6,5.26-1.63,7.31-3.4,1.26-1.09,1.34-3.61,1.87-5.5q4.51-16,9-32c10.41-.08,20.82-.05,31.22-.28,4.81-.11,6.64,1.63,6.27,6.61-1,12.82.66,14.21,13.56,11.82-.36,5.6-.63,11-1.1,16.39-.4,4.54.91,8,5.71,8.94s7.53-1.23,8.63-5.9c2.43-10.36,5.22-20.63,7.35-31,1.1-5.39,2.24-9.11,9.18-8.5,3.94.35,8.24-1.23,12.06-2.75a8.49,8.49,0,0,0,4.62-5.11c2.47-11.54.21-14.58-11.68-17.14-1.91-.4-3.78-1-6.33-1.61,2-9.41,4.31-18.48,5.74-27.68,1-6.46,2.87-10.5,10.5-9.82a21.21,21.21,0,0,0,10.82-1.89c2.63-1.31,5.87-4.63,5.88-7.07,0-2.24-3.82-4.62-6.22-6.64a2.37,2.37,0,0,0-1.87-.31c2.14-2.46,6.75-5.46,6.51-8-.82-9.27-9.85-6.72-15.61-8.66,1-16.21,1-16.21-10.55-18.46.19-5.27,1.94-12.46-6.29-12.19-7.22.24-9.3,11.27-18.07,10.79-1-.06-2.29,3.45-3.24,5.4-.42.84-.26,2-.49,2.92-1,4.48-2.11,9-3,12.67H770.35c.79-6.67,2-12.55,1.95-18.42,0-2.6-2-6.6-4.08-7.36s-5.43,1.5-8.06,2.79-4.89,2.94-7.32,4.42v1.49c-.6-1.13-1.77-2.3-1.69-3.38.39-5.13-1.76-8.44-6.83-8.71s-7.17,3.23-7.74,8.08c-.74,6.4-2.21,12.71-2.8,19.1-.37,4-1.95,5.49-5.88,6-7.61.92-15.17,2.34-22.73,3.67-4.87.84-9.88,2.27-8.67,8.67,1.12,5.95,6.09,5.4,10.71,4.89a31.28,31.28,0,0,1,4.51,0c-1.69,4.67-4.46,8.48-4,11.77.88,5.63,6.48,4.92,10.93,5.09,2.68.12,5.34.4,8.53.65-1.53,10.35-2.71,20.16-4.65,29.81C722.17,210.26,719.17,212.69,717,213.23Zm46.49-32c.28-1.33,2.53-3.08,4-3.2,10.59-.81,21.2-1.25,32.61-1.86-1.37,9.41-2.68,18.34-4.13,28.23l-38.21,7.46C759.76,200.48,761.39,190.8,763.44,181.2Z"/><path class="f155e4d9-9102-4097-9bcd-3fec9834b809" d="M706.32,31.91c3.35,4.61,7.66,3.23,11.84.62C725,28.3,731.86,24.2,740.52,19c-1.72,4.9-1.93,8.73-3.95,10.58-5.32,4.88-3.8,10.73-2.49,15.92.59,2.33,5.14,4.76,8.14,5.13,3.4.39,7.07-1.46,10.62-2.35V46.77l10-27c1.32,2.2,2.7,4.45,4.05,6.72,3.7,6.23,6.19,13.13,14.21,16,4,1.44,7.83,4,10.26-.23,1.51-2.66,1-7.39-.26-10.53-2-5-5.43-9.4-9.22-15.65,8.71,3.52,15.63,6.08,22.34,9.1,5.12,2.31,9.39,2.15,11.59-3.46s-1.77-8-6.17-10c-2.89-1.29-7.28-2.39-8.08-4.62-2.37-6.63-7.49-7-12.92-7.91-3.25-.51-6.42-1.59-11.09-2.8,7.12-4.46,13.17-7.74,18.6-11.85,2.87-2.17,6.29-5.71,6.41-8.75.09-2.44-4-5.84-7-7.35-2.39-1.21-6.06-.84-8.86-.07-3.31.92-6.29,3-10.85,5.31,3.26-10.5,6.34-19.08,8.42-27.92.57-2.37-1.2-6.22-3.16-8-1.28-1.15-5.14-.4-7.28.65-1.73.85-2.63,3.41-3.9,5.2-7.73-11.52-10.12-15.14-17.14-11.54v1.48c-1,2.1-2.33,4.1-2.77,6.29-1.14,5.59-1.87,11.27-3,18.67-3.3-5.3-5.52-8.84-7.71-12.4-2.76-4.49-5.26-9.75-12-6.45-4.28,2.12-5.49,9.87-2.65,15.37,1.13,2.18,2.65,4.17,4,6.27,3.71,5.88,7.4,11.77,12,19.15-9.21-2.46-16.37-4.88-23.72-6.08-2.7-.44-6.92,1.22-8.49,3.36-1.19,1.61,0,6,1.48,8.25,1.33,2,4.47,2.92,6.91,4.11,6.06,2.94,12.18,5.78,18.44,8.75-9.06,7.67-17.3,14.79-25.7,21.71C705.81,23.74,702.91,27.19,706.32,31.91Z"/><path class="f155e4d9-9102-4097-9bcd-3fec9834b809" d="M567.65,585c2.54,1.13,5.45,1.75,7.59,3.36,5.2,3.95,8.78,3.89,12.2-1.86,14.74-24.87,34-45.6,56.72-63.29h1.49c.71-.67,1.41-1.35,2.15-2,11.78-10.07,11.75-18.3-1.21-27.25-9.08-6.28-18.91-11.55-28.73-16.64-7-3.62-9.69-1.93-12.34,5.78a8.63,8.63,0,0,1-2.41,3.14q-19.64,18.51-39.35,37h-1.49c-7.71,8.32-15.35,16.71-23.16,24.94-3.83,4.06-4.24,7.83-.9,12.56A70.11,70.11,0,0,0,567.65,585Z"/><path class="f155e4d9-9102-4097-9bcd-3fec9834b809" d="M68,549.37c1.9-8.86,5-17.46,7.49-26.19,5.16-14,13-25.37,27.66-31.13,2.27-.89,4.4-4.58,4.7-7.18.2-1.77-2.55-4.64-4.65-5.73-6.87-3.58-13.85-9.06-21.76-1.86-.28.26-1,.09-1.46.09-22.16.48-29.09,5.4-28.52,28.54-9.31-3-10.15-2.68-14.64,6.39-1.74,3.51-3,7.24-4.5,10.88H30.78c-2.14,8.32-4.89,16.55-6.25,25C23,557.74,28,565.69,35.9,568.47,46.82,572.3,65.52,560.78,68,549.37ZM41.17,554.8c-2-.58-2.45-6.36-3.83-10.41l13.76,3.37C49.63,552,46.75,556.43,41.17,554.8Z"/><path class="f155e4d9-9102-4097-9bcd-3fec9834b809" d="M292.1,370.64c-2.94-.73-7.27-.91-9.25.73-3.07,2.56-5.3,6.68-6.59,10.56-.51,1.53,2,5.51,3.93,6.16,8.53,2.92,16.27,9.11,26.3,6.71,2.18-.52,4.95.41,7.2,1.3,17.7,7,35.41,14,53,21.35,6.93,2.89,11.61,1.78,15.24-5.34,2.79-5.46,2.37-10.42-3.72-13.88a7.46,7.46,0,0,1-2.85-4.33c-1-3.89-1.17-8-2.42-11.85-4.25-12.89-9.16-25.58-13.16-38.55-3.06-9.92-4.77-20.26-7.87-30.17-.92-2.93-4.16-6.64-6.92-7.21-8-1.65-7.11,11.83-15.93,10.51-.48-.07-1.66,4.17-2.38,6.44a8,8,0,0,0,.08,2.22c0,2.74,0,5.49,0,8.23l-2.19.74c-8.71-14.54-19-28.41-25.68-43.82-6.45-14.78-9.66-31.05-13.5-46.86-3.43-14.15-13.2-20.08-25-12.45-12,7.73-22.88,17.2-33.63,26.61-2,1.79-2.58,7.47-1.39,10.37,3,7.27,7.15,14.09,11.2,20.88,19.35,32.49,48.83,54.71,78.2,77.49C307.75,371.17,300.4,372.74,292.1,370.64Zm-16.28-94.4-17.93-27.71,12.36-7.59c2.51,12.2,4.79,23.25,7.06,34.31Z"/><path class="f155e4d9-9102-4097-9bcd-3fec9834b809" d="M532,91.91c13.67,11.3,27.37,22.55,41,34a10.05,10.05,0,0,0,14.83-2.06,29.25,29.25,0,0,1,4.35-5.82q22-20,44.17-39.84c3.19-2.86,7.51-6.06,4.39-10.36-2-2.71-6.8-4.47-10.43-4.63-12.56-.56-25.16-.22-38.28-.22.38-5.73.66-11.08,1.1-16.42,1.56-19.14.1-38.8,8-56.93,3.4-7.82,4.78-14.69-2.89-20-5.86-4.09-9.71-11.47-18.36-11.3-29.25.57-58.51.66-87.74,1.72-7.06.25-14.16,3.1-21,5.51-5.11,1.81-5.52,9.12-1,12.11,1.58,1,3.63,1.37,5.45,2C472.63-10,475.4-6.62,486.11-7.31,497.73-8.06,509.36-8.85,521-9.5c15-.84,30.06-1.57,45.43-2.36V63.82c-7.43,0-14.33-.31-21.2.09-7.42.42-14.74-1.54-20.48,7.53s-7.3,9.11,1.41,15.89C528.09,88.86,530.09,90.33,532,91.91Zm64.76-7c2.3-1.88,3.51-5.56,6-6.68S609,78,612.87,79.57q-10.57,5.82-21.13,11.66L589.88,88C592.2,87,594.88,86.47,596.75,84.94Z"/><path class="f155e4d9-9102-4097-9bcd-3fec9834b809" d="M90.11,245.43c-1.88-2.9-6.64-3.94-12.13-6.8-7-13-15.39-28.21-23.23-43.66-3-5.83-5.9-10.73-13.1-10.15-.74-3.77-1.32-6.93-2-10.07-1-4.51-9.74-11.19-15-9.8-3.15.83-6.73,4.94-7.72,8.28A378.74,378.74,0,0,0,1.29,273.53c-.12,5.93.08,11.05-7.06,13.52-2,.7-4.2,5.35-3.69,7.58s4.13,4.05,6.64,5.65c.95.6,2.6.1,3.79.1,1.33,12.48,2.55,24.31,3.87,36.13.58,5.19,3.14,8.33,8.84,7.54,5.44-.74,7.34-4.26,7.42-9.4.21-12.9.34-25.8,1-38.67.14-2.68,1.93-6.49,4.08-7.62,8.06-4.23,16.59-7.55,25.62-11.51,4.8,11.78,9.1,22.84,13.81,33.73,4.83,11.17,11.53,13.72,22.77,9.12,4.52-1.85,9-3.9,13.44-5.86,3.24,1.68,7,2.62,9.69,1.34,1.73-.82,2.49-4.91,2.55-7.56,0-2-1.65-4.06-2.69-6Q99.25,278.66,87,255.77C89.35,252.23,91.55,247.65,90.11,245.43ZM41.93,258.27c-5.21,3.65-10.79,6.77-18.2,11.29,2.64-19.41,5.05-37.11,7.46-54.81l1.86.09c3.71,12.72,7.53,25.4,11,38.19C44.42,254.53,43.26,257.35,41.93,258.27Z"/><path class="f155e4d9-9102-4097-9bcd-3fec9834b809" d="M355,69.11c-.25-7.18,1-15.58-10.85-13.49-.64.11-1.48-1.18-2.29-1.71-6.25-4.08-9.7-2.73-12.46,4a35.18,35.18,0,0,1-6.79,11c-13.08,13.48-26.53,26.59-39.8,39.9-4.37,4.38-8.79,8.76-12.8,13.47-3.81,4.47-2,11.33,3.28,11.42,5.91.11,12.74,1.26,17.15-5.46,3.36-5.14,7.77-9.6,12.65-15.49-.45,4.95-2.15,9.11-.75,11.06,4.44,6.23,2.21,12.86,2.64,19.31.88,13,1.64,26.08,2.5,40-4.33-.53-8-1.18-11.69-1.37-4.89-.25-8.26,1.92-8.51,7.13-.18,3.71,12.22,15.89,16.08,16.19a10.61,10.61,0,0,0,1.49,0c21.21-1.66,42.44-3.15,63.61-5.24,2.39-.24,5.64-3.52,6.29-6,.53-2-1.61-6-3.66-7.13-4.77-2.56-10.19-3.9-15.93-5.94.93-5.89,2.93-12.31,2.79-18.69C357.32,131,356.08,100.06,355,69.11Z"/><path class="f155e4d9-9102-4097-9bcd-3fec9834b809" d="M100.45,129.25c-10,.51-12.14,5.14-6.7,14.3-3.53.57-7,1-10.32,1.71-4.89,1.09-8.51,5.05-5.58,9,4.91,6.6,9.94,14.48,19.66,14.84,10.35.39,20.73.09,31.71.09,1.19,12.14,2.05,22.72,3.32,33.26,1.09,9,4.78,10.94,12.94,7.25,1.12-.5,2.5-.57,3.46-1.26,6.89-5,14.3-9.3,12.88-20-.9-6.77-.17-13.76-.17-20.66,5.68-1.68,11.69-3.71,17.82-5.23,10.56-2.61,11.68-4.16,9.25-15.15,5.24-1.1,10.78-1.54,15.64-3.6,2.39-1,4.85-5.08,4.77-7.68-.06-2-4-5.31-6.37-5.5-11.89-1-23.85-1.07-35.78-1.45-2.64-.09-5.29,0-8.39,0-.54-9.08-.91-17.21-1.54-25.33s-5.74-10.52-12.54-6.07c-1.58,1-3.57,2.47-5.17,2.26-7.23-1-9.2,3.2-9.58,9.1-.42,6.57-.7,13.15-1.06,20.08C118.75,129.16,109.58,128.79,100.45,129.25Z"/><path class="f155e4d9-9102-4097-9bcd-3fec9834b809" d="M474.58,87.15c-9.77,1.15-19.51,2.7-29.17,4.56-5.58,1.08-7.72,4.85-7.68,10.85.2,28.08,2.45,56,9.1,83.26,4.32,17.73,10.32,35.08,16,52.47,2.24,6.9,8.36,9.75,11.4,5.55,4.74-6.54,7.8-14.32,11.48-21.62.27-.54-.21-1.44-.26-2.18q-2.39-36.31-4.76-72.62l2.62-.07c0-17.08-.15-34.17.07-51.25C483.43,89.76,480.75,86.43,474.58,87.15Zm-6.11,23.15c-4.81-5.14-9.42-6.59-14.05-1.07-1.85-7.11-1.41-7.35,14.05-7.77Z"/><path class="f155e4d9-9102-4097-9bcd-3fec9834b809" d="M637,429.46a10.38,10.38,0,0,0,1.85,2.3c3.92,3.23,8.85,2.48,9.87-1.58,1.53-6.15,5.14-12.32.6-19.56-8.28-13.16-15-27.31-23-40.68-13.43-22.5-27.33-44.72-41-67-3.69-6-8.21-7.67-14.4-1.82-1.49-1.92-2.56-3.27-3.59-4.64-2.88-3.83-6.16-7.05-11.12-3.56-4.39,3.08-3.46,7.15-1.11,11.17,2.13,3.62,4,7.39,6.34,10.9Q599.16,372.24,637,429.46Z"/><path class="f155e4d9-9102-4097-9bcd-3fec9834b809" d="M187.8,395.05c5.64-3.56,6.66-8.35,2.77-12-4.17-3.94-8.12-8.18-12.69-11.59-3.62-2.71-8-4.36-13.4-7.16-6.45,3.79-13.37,6.64-18.8,11.26-15.38,13.1-25.89,29.7-32.52,48.81a14.57,14.57,0,0,1-4.44,6.15c-5.36,4.42-4.66,8.83,1.29,12.74,3.63,2.39,6.12,6.46,9.28,9.63,2,2,4.26,5.19,6.34,5.14,2.54-.07,5.73-2.45,7.38-4.74,5.79-8,10.67-16.64,16.56-24.54C159.9,414.84,173.25,404.23,187.8,395.05Z"/><path class="f155e4d9-9102-4097-9bcd-3fec9834b809" d="M-49.78,81.12c1.67,5.39,6.87,4.13,11.41,2.8,15-4.4,30-8.53,44.93-13,5.66-1.7,7.64-.57,8.29,5.81,1.29,12.52,3.57,25,6.1,37.32.51,2.49,3.77,5.83,6.1,6.13s5.13-2.65,7.17-4.72c1.46-1.49,2.07-3.86,2.89-5.9,1.66-4.16,5-8.63,4.47-12.51-2.25-15.67-5.39-31.24-8.86-46.7C30.14,38.78,22.42,34,11,37.71c-17.6,5.77-34.9,12.52-52.12,19.38-7.15,2.85-7.51,5.61-3.68,12.75L-47,70C-48,73.72-50.75,78-49.78,81.12Z"/><path class="f155e4d9-9102-4097-9bcd-3fec9834b809" d="M528.15,402.07c-2.28,16.66,21.59,28.4,36.51,29.67,13.88,1.19,27.88-12.89,27.8-26.3-.11-20.12-13.16-36.28-29.57-36.61C545.67,368.47,528.25,385.14,528.15,402.07Zm33.22-12.76c3.13,1,5.78,3.54,8.63,5.4-3.13,3.19-5.77,7.26-9.51,9.33-4.7,2.6-6.38-2.22-7.68-5.52-1-2.61-1.07-5.61-1.71-9.4C555.17,389.12,558.54,388.39,561.37,389.31Z"/><path class="f155e4d9-9102-4097-9bcd-3fec9834b809" d="M642.31,339.09c-2.85,5.83-3.16,11.22.82,16.76,1.52,2.11,2.27,4.86,3.08,7.41,4.15,13.13,14.71,21.46,27.21,21.34,13.64-.12,26.55-10.26,31.83-25a29.41,29.41,0,0,0-8.64-33C680.89,313.11,651.68,319.89,642.31,339.09Zm46.23,19c-.51,6.69-8.15,11.05-13.56,7.33-6.9-4.75-12-11.4-12.94-19.72-.31-2.63,3.83-5.78,5-7.35C678,338.06,689.16,349.8,688.54,358.11Z"/><path class="f155e4d9-9102-4097-9bcd-3fec9834b809" d="M158.1-8.44C145-8.31,133.63,3.1,134,15.71c.41,13.44,11.84,25.12,24.44,25,12.93-.15,25.16-12,25.17-24.46C183.62,3.15,171.5-8.57,158.1-8.44Z"/><path class="f155e4d9-9102-4097-9bcd-3fec9834b809" d="M407.09,509.37c9.24,3.42,19.86-1.72,22.1-11.3,1-4.28,1.06-8.78,1.55-13.19-.09-9-5.43-17.49-13.31-20.55-9.43-3.65-18-1.72-25.42,4.95-6.49,5.83-8.28,15.22-4.9,23.89C390.68,502.35,398.55,506.2,407.09,509.37Z"/><path class="f155e4d9-9102-4097-9bcd-3fec9834b809" d="M467.88,287.59c.18,11.58,9.06,21.09,19.67,21.07,11,0,21.06-10.44,21-21.77-.05-11.06-9.18-19.78-20.67-19.73A20.16,20.16,0,0,0,467.88,287.59Z"/><path class="f155e4d9-9102-4097-9bcd-3fec9834b809" d="M999.93,549.37c1.9-8.86,5-17.46,7.49-26.19,5.16-14,13-25.37,27.66-31.13,2.27-.89,4.4-4.58,4.7-7.18.2-1.77-2.55-4.64-4.65-5.73-6.87-3.58-13.86-9.06-21.76-1.86-.28.26-1,.09-1.46.09-22.16.48-29.09,5.4-28.52,28.54-9.31-3-10.15-2.68-14.64,6.39-1.74,3.51-3,7.24-4.5,10.88h-1.49c-2.14,8.32-4.89,16.55-6.25,25-1.52,9.56,3.49,17.51,11.37,20.29C978.8,572.3,997.49,560.78,999.93,549.37Zm-26.78,5.43c-2-.58-2.45-6.36-3.83-10.41l13.76,3.37C981.61,552,978.73,556.43,973.15,554.8Z"/><path class="f155e4d9-9102-4097-9bcd-3fec9834b809" d="M1224.07,370.64c-2.93-.73-7.27-.91-9.24.73-3.07,2.56-5.3,6.68-6.59,10.56-.51,1.53,2,5.51,3.93,6.16,8.53,2.92,16.27,9.11,26.29,6.71,2.19-.52,5,.41,7.21,1.3,17.7,7,35.41,14,53,21.35,6.93,2.89,11.61,1.78,15.24-5.34,2.78-5.46,2.37-10.42-3.72-13.88a7.41,7.41,0,0,1-2.85-4.33c-1-3.89-1.17-8-2.42-11.85-4.25-12.89-9.16-25.58-13.16-38.55-3.06-9.92-4.77-20.26-7.87-30.17-.92-2.93-4.16-6.64-6.92-7.21-8-1.65-7.11,11.83-15.93,10.51-.48-.07-1.66,4.17-2.38,6.44a8,8,0,0,0,.08,2.22c0,2.74,0,5.49,0,8.23l-2.19.74c-8.71-14.54-19-28.41-25.68-43.82-6.45-14.78-9.67-31.05-13.5-46.86-3.43-14.15-13.2-20.08-25-12.45-12,7.73-22.88,17.2-33.63,26.61-2,1.79-2.58,7.47-1.39,10.37,3,7.27,7.15,14.09,11.19,20.88,19.36,32.49,48.84,54.71,78.21,77.49C1239.73,371.17,1232.38,372.74,1224.07,370.64Zm-16.27-94.4-17.93-27.71,12.36-7.59c2.51,12.2,4.79,23.25,7.06,34.31Z"/><path class="f155e4d9-9102-4097-9bcd-3fec9834b809" d="M1464,91.91c13.67,11.3,27.37,22.55,41,34a10.05,10.05,0,0,0,14.83-2.06,29.25,29.25,0,0,1,4.35-5.82q22-20,44.17-39.84c3.19-2.86,7.51-6.06,4.39-10.36-2-2.71-6.8-4.47-10.43-4.63-12.57-.56-25.16-.22-38.28-.22.38-5.73.66-11.08,1.1-16.42,1.56-19.14.1-38.8,8-56.93,3.4-7.82,4.78-14.69-2.89-20-5.87-4.09-9.72-11.47-18.36-11.3-29.25.57-58.51.66-87.74,1.72-7.06.25-14.16,3.1-21,5.51-5.11,1.81-5.52,9.12-1,12.11,1.58,1,3.63,1.37,5.45,2-2.91,10.42-.15,13.77,10.57,13.08,11.62-.75,23.24-1.54,34.87-2.19,15-.84,30-1.57,45.43-2.36V63.82c-7.43,0-14.33-.31-21.2.09-7.42.42-14.75-1.54-20.48,7.53s-7.3,9.11,1.41,15.89C1460.07,88.86,1462.06,90.33,1464,91.91Zm64.75-7c2.31-1.88,3.52-5.56,6-6.68s6.21-.26,10.13,1.31q-10.57,5.82-21.13,11.66L1521.86,88C1524.18,87,1526.86,86.47,1528.72,84.94Z"/><path class="f155e4d9-9102-4097-9bcd-3fec9834b809" d="M1022.09,245.43c-1.88-2.9-6.64-3.94-12.13-6.8-7-13-15.39-28.21-23.23-43.66-3-5.83-5.9-10.73-13.1-10.15-.74-3.77-1.32-6.93-2-10.07-1-4.51-9.73-11.19-15-9.8-3.15.83-6.73,4.94-7.72,8.28a378.74,378.74,0,0,0-15.62,100.3c-.12,5.93.07,11.05-7.06,13.52-2,.7-4.2,5.35-3.69,7.58s4.13,4.05,6.64,5.65c1,.6,2.6.1,3.79.1,1.33,12.48,2.55,24.31,3.87,36.13.58,5.19,3.13,8.33,8.84,7.54,5.44-.74,7.34-4.26,7.42-9.4.21-12.9.34-25.8,1-38.67.14-2.68,1.92-6.49,4.08-7.62,8.06-4.23,16.58-7.55,25.61-11.51,4.81,11.78,9.11,22.84,13.82,33.73,4.83,11.17,11.53,13.72,22.77,9.12,4.52-1.85,9-3.9,13.44-5.86,3.24,1.68,7,2.62,9.69,1.34,1.73-.82,2.49-4.91,2.55-7.56,0-2-1.65-4.06-2.69-6q-12.17-22.94-24.38-45.83C1021.33,252.23,1023.53,247.65,1022.09,245.43Zm-48.18,12.84c-5.21,3.65-10.79,6.77-18.2,11.29,2.64-19.41,5-37.11,7.46-54.81l1.86.09c3.71,12.72,7.53,25.4,11,38.19C976.4,254.53,975.24,257.35,973.91,258.27Z"/><path class="f155e4d9-9102-4097-9bcd-3fec9834b809" d="M1287,69.11c-.24-7.18,1-15.58-10.84-13.49-.64.11-1.48-1.18-2.29-1.71-6.25-4.08-9.7-2.73-12.46,4a35.18,35.18,0,0,1-6.79,11c-13.08,13.48-26.53,26.59-39.8,39.9-4.37,4.38-8.79,8.76-12.8,13.47-3.81,4.47-2,11.33,3.27,11.42,5.92.11,12.75,1.26,17.16-5.46,3.36-5.14,7.77-9.6,12.65-15.49-.45,4.95-2.15,9.11-.75,11.06,4.44,6.23,2.21,12.86,2.64,19.31.88,13,1.64,26.08,2.5,40-4.33-.53-8-1.18-11.69-1.37-4.89-.25-8.26,1.92-8.51,7.13-.18,3.71,12.22,15.89,16.08,16.19a10.61,10.61,0,0,0,1.49,0c21.21-1.66,42.44-3.15,63.6-5.24,2.4-.24,5.65-3.52,6.3-6,.53-2-1.62-6-3.66-7.13-4.77-2.56-10.19-3.9-15.93-5.94.93-5.89,2.93-12.31,2.79-18.69C1289.3,131,1288.06,100.06,1287,69.11Z"/><path class="f155e4d9-9102-4097-9bcd-3fec9834b809" d="M854.79,365.25c-21-10.81-44.45-4-60,17.39a23.59,23.59,0,0,0-.86,27.17c1.45,2.31,2.91,4.6,4.39,6.89,5.43,8.43,12.94,12,21.31,10,7-1.68,13-5.48,13.67-12.91.93-9.82-1.13-22-10.55-26.56,3.32-1.57,6.92-3.26,10.32-2.92,15.25,1.53,24.58,18.45,16.27,31.26-6.1,9.4-15.17,16.81-22.51,25.45-6.84,8.06-14.58,15.82-19.34,25.05-6.54,12.68-5.65,26.07,4.47,37.42,6.78,7.6,11.91,6.36,14.83-1.69,4.87-.56,9,0,11.57-1.71,1.67-1.08,2.52-6.25,1.4-8.3-5.11-9.32-1.92-16.81,4.25-23.66a132.77,132.77,0,0,1,12.51-11.65c10-8.59,17.54-18.79,21.56-31.45C885.73,401,876.06,376.16,854.79,365.25Z"/><path class="f155e4d9-9102-4097-9bcd-3fec9834b809" d="M1032.43,129.25c-10.05.51-12.14,5.14-6.7,14.3-3.54.57-7,1-10.32,1.71-4.89,1.09-8.52,5.05-5.58,9,4.91,6.6,9.94,14.48,19.66,14.84,10.35.39,20.73.09,31.7.09,1.2,12.14,2.06,22.72,3.33,33.26,1.08,9,4.78,10.94,12.94,7.25,1.11-.5,2.5-.57,3.46-1.26,6.89-5,14.3-9.3,12.87-20-.9-6.77-.16-13.76-.16-20.66,5.68-1.68,11.69-3.71,17.82-5.23,10.56-2.61,11.67-4.16,9.25-15.15,5.24-1.1,10.78-1.54,15.63-3.6,2.4-1,4.86-5.08,4.78-7.68-.06-2-4-5.31-6.38-5.5-11.88-1-23.84-1.07-35.77-1.45-2.64-.09-5.29,0-8.39,0-.54-9.08-.92-17.21-1.54-25.33s-5.74-10.52-12.54-6.07c-1.58,1-3.57,2.47-5.17,2.26-7.23-1-9.2,3.2-9.58,9.1-.42,6.57-.7,13.15-1.06,20.08C1050.73,129.16,1041.56,128.79,1032.43,129.25Z"/><path class="f155e4d9-9102-4097-9bcd-3fec9834b809" d="M1406.56,87.15c-9.77,1.15-19.51,2.7-29.17,4.56-5.58,1.08-7.73,4.85-7.68,10.85.2,28.08,2.45,56,9.1,83.26,4.32,17.73,10.32,35.08,16,52.47,2.24,6.9,8.36,9.75,11.4,5.55,4.74-6.54,7.8-14.32,11.48-21.62.27-.54-.22-1.44-.26-2.18q-2.4-36.31-4.76-72.62l2.62-.07c0-17.08-.15-34.17.07-51.25C1415.4,89.76,1412.73,86.43,1406.56,87.15Zm-6.11,23.15c-4.81-5.14-9.42-6.59-14-1.07-1.85-7.11-1.41-7.35,14-7.77Z"/><path class="f155e4d9-9102-4097-9bcd-3fec9834b809" d="M1119.78,395.05c5.64-3.56,6.66-8.35,2.76-12-4.16-3.94-8.11-8.18-12.68-11.59-3.62-2.71-8-4.36-13.4-7.16-6.45,3.79-13.38,6.64-18.8,11.26-15.38,13.1-25.89,29.7-32.52,48.81a14.66,14.66,0,0,1-4.44,6.15c-5.36,4.42-4.66,8.83,1.29,12.74,3.63,2.39,6.12,6.46,9.28,9.63,2,2,4.26,5.19,6.34,5.14,2.54-.07,5.73-2.45,7.38-4.74,5.79-8,10.67-16.64,16.56-24.54C1091.88,414.84,1105.23,404.23,1119.78,395.05Z"/><path class="f155e4d9-9102-4097-9bcd-3fec9834b809" d="M882.2,81.12c1.67,5.39,6.87,4.13,11.4,2.8,15-4.4,30-8.53,44.94-13,5.66-1.7,7.64-.57,8.29,5.81,1.28,12.52,3.57,25,6.1,37.32.51,2.49,3.77,5.83,6.1,6.13s5.13-2.65,7.17-4.72c1.46-1.49,2.07-3.86,2.89-5.9,1.66-4.16,5-8.63,4.47-12.51-2.25-15.67-5.39-31.24-8.86-46.7C962.12,38.78,954.4,34,943,37.71c-17.6,5.77-34.9,12.52-52.12,19.38-7.15,2.85-7.51,5.61-3.68,12.75L885,70C883.93,73.72,881.23,78,882.2,81.12Z"/><path class="f155e4d9-9102-4097-9bcd-3fec9834b809" d="M1090.08-8.44C1077-8.31,1065.61,3.1,1066,15.71c.41,13.44,11.84,25.12,24.43,25,12.94-.15,25.17-12,25.18-24.46C1115.6,3.15,1103.48-8.57,1090.08-8.44Z"/><path class="f155e4d9-9102-4097-9bcd-3fec9834b809" d="M1339.07,509.37c9.24,3.42,19.86-1.72,22.1-11.3,1-4.28,1.06-8.78,1.55-13.19-.09-9-5.43-17.49-13.31-20.55-9.44-3.65-18-1.72-25.43,4.95-6.48,5.83-8.27,15.22-4.89,23.89C1322.66,502.35,1330.53,506.2,1339.07,509.37Z"/><path class="f155e4d9-9102-4097-9bcd-3fec9834b809" d="M1399.86,287.59c.18,11.58,9.06,21.09,19.67,21.07,11,0,21.06-10.44,21-21.77,0-11.06-9.17-19.78-20.66-19.73A20.15,20.15,0,0,0,1399.86,287.59Z"/><path class="f155e4d9-9102-4097-9bcd-3fec9834b809" d="M692.65,825c21.19,8.08,41.37,3.1,60.19-8.55V815c1.82-1.15,4.14-1.93,5.37-3.54,6.06-7.91,12.19-15.82,17.47-24.26,1.51-2.42,1.51-7.35,0-9.77-2.63-4.21-6.86-2.54-10.35.06-4.16,3.09-8.33,6.15-12.49,9.22v1.49c-4.22,2.44-8.46,4.85-12.65,7.33-16.87,10-35.81,8.48-50.81-4.27a75.9,75.9,0,0,1-7.35-7.33c-8.07-9-11.47-19-5.27-30.48,5.51-10.19,10.26-21,17.1-30.21,13.66-18.39,33.11-20.1,51-5.81,2.48,2,5.29,3.52,8,5.27,9.29-5.14,9.29-9.81,0-19.35v-1.5c-12.62-12.15-27.53-18.46-45.15-16.56-54.63,5.93-76.8,71.12-56.06,109.62C660.43,811.22,676.49,818.87,692.65,825Z"/><path class="f155e4d9-9102-4097-9bcd-3fec9834b809" d="M646,631.31c5.92,2.72,9,1.54,12.29-3.44,3-4.65,6.1-9.48,10.05-13.31,15.12-14.62,30.72-28.75,45.92-43.3,8-7.62,8.13-16.33,1.17-24.31s-13.77-15.85-20.65-23.77h-1.49c-7.72-6.25-14.9-6.25-20.85,0,1.51,4.3,3,8.61,5.11,14.65a66.22,66.22,0,0,0-7.86,1.73c-2.62.85-6,1.62-7.41,3.58Q637.8,576.2,614,609.7c-4.71,6.65-1.7,11,6.37,13A139,139,0,0,1,646,631.31Zm-10.37-24c5.27,3.89,9.11,2.45,12.24-2.67,4.34-7.13,8.64-14.27,14.38-20.72-4.92,10.24-9.85,20.49-14.89,31l-15.9-5.54c-.1-.62-.21-1.23-.31-1.84C632.67,607.43,634.7,606.64,635.63,607.33Z"/><path class="f155e4d9-9102-4097-9bcd-3fec9834b809" d="M815.86,953.69c2.19-5.57-1.77-8-6.17-10-2.89-1.29-7.28-2.39-8.08-4.62-2.37-6.63-7.49-7-12.92-7.9-3.25-.54-6.42-1.6-11.09-2.81,7.12-4.46,13.17-7.73,18.6-11.85,2.87-2.17,6.29-5.71,6.41-8.76.09-2.43-4-5.83-7-7.33-2.39-1.22-6.06-.85-8.86-.08-3.31.91-6.29,3-10.85,5.31,3.26-10.5,6.34-19.08,8.42-27.92.57-2.39-1.2-6.22-3.16-8-1.28-1.14-5.14-.39-7.28.67-1.73.84-2.63,3.4-3.9,5.19-7.73-11.52-10.12-15.14-17.14-11.54v1.48c-1,2.09-2.33,4.09-2.77,6.29-1.14,5.59-1.87,11.27-3,18.66-3.3-5.29-5.52-8.83-7.71-12.39-2.76-4.48-5.26-9.75-12-6.44-4.28,2.09-5.49,9.86-2.65,15.36,1.13,2.18,2.65,4.17,4,6.27,3.71,5.88,7.4,11.77,12,19.15-9.21-2.46-16.37-4.88-23.72-6.07-2.7-.45-6.92,1.21-8.49,3.35-1.19,1.61,0,6,1.48,8.25,1.33,2,4.47,2.9,6.91,4.09,6.06,3,12.18,5.81,18.44,8.77-9.06,7.67-17.3,14.79-25.7,21.71-3.81,3.12-6.71,6.58-3.3,11.29s7.66,3.23,11.84.62c6.81-4.24,13.7-8.33,22.36-13.57-1.72,4.91-1.93,8.74-3.95,10.59-5.32,4.88-3.8,10.73-2.49,15.91.59,2.34,5.14,4.78,8.14,5.14,3.4.39,7.07-1.46,10.62-2.35v-1.49c3.3-8.85,6.6-17.73,10-27,1.32,2.19,2.7,4.44,4.05,6.72,3.7,6.22,6.19,13.13,14.21,16,4,1.44,7.83,4,10.26-.23,1.51-2.66,1-7.39-.26-10.52-2-5-5.43-9.41-9.22-15.66,8.71,3.52,15.63,6.08,22.34,9.1C809.39,959.47,813.66,959.3,815.86,953.69Z"/><path class="f155e4d9-9102-4097-9bcd-3fec9834b809" d="M121.65,701.06c2.65-8.13-.17-13.34-7.7-12.12-37.12,6-71.78,18.76-103.55,39-6.11,3.89-6.85,8.13-1.63,13.44,7,7.16,15,13.39,21.83,19.35C19.53,774.35,7.12,788.24-3.67,803.28a171,171,0,0,0-30.39,75.89c-2.13,14.54,2.68,31.22,21.8,32.34a15.51,15.51,0,0,1,4.9,1.54c19.24,8.23,31.43.78,30.42-19.79a134.36,134.36,0,0,1,6.26-47.57c8.3-26.18,18.94-51.18,41.66-67.85,9.11,3.16,14.64,7.54,10.77,17.26a2,2,0,0,0-.1,1.46c1.37,2.66,2.25,6.31,4.46,7.56,1.76,1,5.24-.8,7.84-1.69,1.47-.5,2.6-2.19,4-2.47,9.15-1.74,10.73-4.47,6.85-13.06-3.44-7.6-5.77-15.09-3-23.63C108.65,742.6,114.93,721.76,121.65,701.06Z"/><path class="f155e4d9-9102-4097-9bcd-3fec9834b809" d="M234.61,686.27c4.36-7.71,8.52-15.54,12.91-23.59,1.92.91,3.73,1.32,4.94,2.4,14.51,13.07,30.12,6.81,38.58-7.4a171,171,0,0,0,12-25.48c.81-2.09-.78-6.46-2.7-8-7.91-6.5-16.38-12.33-25.05-18.7,4.62-9.32,5.36-20.9,15.47-28.09,4.76-3.38,3.47-8.53-2.13-12.08-7.32-4.64-15-8.67-22.22-13.51-2.67-1.8-4.78-4.9-6.29-7.85-2.05-4-5.15-6.33-8.81-4a32.53,32.53,0,0,0-9.49,9.87c-6.09,9.49-11.57,19.37-17.39,29.26-7.86-3.34-14.61-6.36-21.47-9.1s-14-5-20.83-7.9c-6.11-2.6-9.58-.51-12.7,4.89-2.54,4.39-5.58,9-9.57,11.89s-6.47,5.61-5,10.25,2.92,10.12,6.1,13.66c7.1,7.89,15.17,14.93,23.07,22.08,2.91,2.62,4.44,4.59,2,8.65-4.42,7.39-8.07,15.25-12.26,22.79-2.44,4.38-2.5,8.46,2.09,10.81,7.59,3.89,15.27,8.21,23.44,10.17,8.64,2.08,15.35,6.37,21.86,11.82C227.37,694.21,230.53,693.51,234.61,686.27Zm-37.19-30.51c-3.43-7.56.78-11.59,3.9-15.78.42-.56,2.77.32,5.12.67Z"/><path class="f155e4d9-9102-4097-9bcd-3fec9834b809" d="M374,804.84a49,49,0,0,0-29.39-15.7c.12-.8,0-1.43.28-1.74a32.72,32.72,0,0,0,.17-42.47c-13.69-15.61-22.54-21.65-41.64-15.73-6.8,2.11-14.78,7.53-22.76,1.08-.86-.69-4.78.66-5.66,2.08-3.17,5.07-6.29,10.35-8.21,16-3.28,9.59-5.68,19.47-8.37,29.25-2.61,9.49-.91,12.08,9,13.44.67,3.24,1.41,6.61,2.06,10,3.85,20.16,6.82,40.55,11.8,60.44,3.65,14.6,9.71,28.64,15.3,42.69.85,2.13,4.89,3.26,7.67,4.27,1.66.61,3.89-.39,5.59.17,10.69,3.53,20.73,1.6,29.94-4.07a109.64,109.64,0,0,0,43.86-51C391.33,835.59,387.13,819.14,374,804.84ZM305.35,788.3c-11.62-.23-11.58-.23-12.83-10.52-.59-4.9-1.27-9.79-2.09-14.65-1.81-10.87,6.61-19.58,17.92-18.41,13.18,1.36,19,9.62,15.45,22.11-1.08,3.78-2.72,7.4-3.89,11.16C317.44,785.88,312.86,790.33,305.35,788.3ZM359,843.24c-3.84,12-13.23,19-24.11,23.76-7.41,3.27-15.38,5.28-23.63,8-4.25-14.62-5.58-28.11-1-41.89,3.5-10.46,11-17.09,20.48-21.07,8.55-3.59,17.42-2.26,24.07,4.67C362.15,824.34,362,833.83,359,843.24Z"/><path class="f155e4d9-9102-4097-9bcd-3fec9834b809" d="M572.94,1057.84a10.06,10.06,0,0,0,14.83-2.06,29,29,0,0,1,4.35-5.82q22-20,44.17-39.84c3.19-2.86,7.51-6.07,4.39-10.36-2-2.71-6.8-4.48-10.43-4.64-12.56-.55-25.16-.21-38.28-.21.38-5.73.66-11.08,1.1-16.42,1.56-19.14.1-38.8,8-56.93,3.4-7.82,4.78-14.69-2.89-20-5.86-4.09-9.71-11.48-18.36-11.3-29.25.57-58.51.66-87.74,1.72-7.06.25-14.16,3.1-21,5.51-5.11,1.81-5.52,9.12-1,12.11,1.58,1,3.63,1.37,5.45,2-2.91,10.43-.14,13.78,10.57,13.08,11.62-.74,23.25-1.53,34.87-2.18,15-.84,30.06-1.57,45.43-2.37V995.8c-7.43,0-14.33-.31-21.2.08-7.42.43-14.74-1.53-20.48,7.54s-7.3,9.1,1.41,15.89c2,1.53,4,3,5.85,4.58C545.66,1035.18,559.36,1046.44,572.94,1057.84Zm23.81-40.92c2.3-1.88,3.51-5.56,6-6.68s6.21-.26,10.13,1.3l-21.13,11.67-1.86-3.25C592.2,1019,594.88,1018.45,596.75,1016.92Z"/><path class="f155e4d9-9102-4097-9bcd-3fec9834b809" d="M439.38,811.66c24.79.27,49.59,0,74.39.12,4.93,0,9.22-.81,10.06-6.42.79-5.29-3.18-7.44-7.39-8.74-15.07-4.67-30.14-9.48-46.29-6-2.27.49-4.66.39-7.82.63,9.95-22.08,19.52-43.25,29-64.44,3.74-8.34,2.39-10.93-5.47-12.76-1.86-4.75-2.76-8.58-4.75-11.71-1.89-3-4.93-5.19-7.46-7.73-2.57,2.68-6,4.93-7.56,8.11-6.23,12.88-12.44,25.83-17.55,39.19-4,10.5-6.37,21.63-9.52,32.47-2.33,8-4.79,16-7.1,24-.92,3.21-3.2,7.55-1.95,9.5C431.5,810.23,436.1,811.62,439.38,811.66Z"/><path class="f155e4d9-9102-4097-9bcd-3fec9834b809" d="M408.82,617.43c.61,6.57.63,12.37,1.79,17.93,1.51,7.21,5.38,9,11.75,5.45,5.57-3.12,11.56-6.38,15.65-11.08,11.19-12.85,18-25.91,3-40.59a9.92,9.92,0,0,1-2.5-4.28c-3.41-12.13-16.08-21.59-28.62-21.21-10.89.33-21.08,7.7-23,17.76C384.24,595.14,389.23,616.21,408.82,617.43Z"/><path class="f155e4d9-9102-4097-9bcd-3fec9834b809" d="M52.68,604c4.79-6.17,2.89-11.58-4.84-12.84-6.79-1.11-13.8-2.58-20.51-1.89-4.61.48-9.79,3.57-12.9,7.09-1.64,1.85.61,7.14,1.07,10.67-1.93,2.58-5.63,5.43-6.49,9q-6.66,27.74-11.92,55.8c-.56,3,1,8,3.24,9.33,1.92,1.17,6.34-1.19,9.39-2.56,6.81-3.06,13.17-7.6,20.26-9.47,8.28-2.2,10.45-4.3,7.66-12.71-5-15.16-3.24-29.23,6.66-42C47,610.85,50,607.49,52.68,604Z"/><path class="f155e4d9-9102-4097-9bcd-3fec9834b809" d="M154.24,821.05c-11.07-.29-21.82,11.28-22.12,23.78-.31,13.45,10.14,24.85,22.93,25,13,.18,25.24-11.14,25.8-23.85C181.44,832.57,169.58,821.45,154.24,821.05Z"/><path class="f155e4d9-9102-4097-9bcd-3fec9834b809" d="M596,713.19c1.91,1.75,6.52,2.67,8.79,1.55,9.41-4.64,14.77-18.67,12.44-30.33-2.19-10.91-15.16-24.79-24.1-25.77-9.09-1-17.39,3.47-20,10.77-1.89,5.24,3.47,23,7.93,25.43a8.84,8.84,0,0,0,5.7,1c5.61-1.39,11.08-3.32,19.16-5.84-3.82,5.75-7.24,10.07-9.63,14.89C595.05,707.3,594.6,711.94,596,713.19Z"/><path class="f155e4d9-9102-4097-9bcd-3fec9834b809" d="M564,730.36c.45,2.57,2.93,5.91,5.24,6.69,1.88.63,5.94-1.35,7.19-3.33,5.3-8.44,1.76-27.11-5.78-34-2.89-2.64-5.69-5.39-8.36-8.25-5.91-6.3-14.31-8.43-21.64-5.31-8.16,3.46-14.48,13.14-13.42,21.3a11.43,11.43,0,0,0,3.21,6.4c9.5,8.9,22,9.45,33.32,1.08C563.8,720.65,563.21,725.63,564,730.36Z"/><path class="f155e4d9-9102-4097-9bcd-3fec9834b809" d="M1053.63,701.06c2.65-8.13-.17-13.34-7.7-12.12-37.12,6-71.78,18.76-103.55,39-6.11,3.89-6.85,8.13-1.63,13.44,7,7.16,15,13.39,21.83,19.35-11.07,13.64-23.48,27.53-34.28,42.57a171.06,171.06,0,0,0-30.38,75.89c-2.13,14.54,2.68,31.22,21.8,32.34a15.51,15.51,0,0,1,4.9,1.54c19.24,8.23,31.43.78,30.42-19.79a134.14,134.14,0,0,1,6.26-47.57c8.3-26.18,18.94-51.18,41.66-67.85,9.11,3.16,14.64,7.54,10.77,17.26a2,2,0,0,0-.1,1.46c1.37,2.66,2.25,6.31,4.46,7.56,1.76,1,5.24-.8,7.84-1.69,1.46-.5,2.6-2.19,4-2.47,9.15-1.74,10.73-4.47,6.85-13.06-3.44-7.6-5.77-15.09-3-23.63C1040.63,742.6,1046.91,721.76,1053.63,701.06Z"/><path class="f155e4d9-9102-4097-9bcd-3fec9834b809" d="M1166.59,686.27c4.36-7.71,8.52-15.54,12.91-23.59,1.91.91,3.73,1.32,4.94,2.4,14.51,13.07,30.12,6.81,38.58-7.4a171,171,0,0,0,12-25.48c.81-2.09-.78-6.46-2.7-8-7.92-6.5-16.38-12.33-25-18.7,4.62-9.32,5.36-20.9,15.47-28.09,4.76-3.38,3.47-8.53-2.13-12.08-7.32-4.64-15-8.67-22.22-13.51-2.68-1.8-4.78-4.9-6.29-7.85-2-4-5.15-6.33-8.81-4a32.41,32.41,0,0,0-9.49,9.87c-6.09,9.49-11.57,19.37-17.39,29.26-7.86-3.34-14.61-6.36-21.47-9.1s-14-5-20.83-7.9c-6.11-2.6-9.58-.51-12.7,4.89-2.54,4.39-5.58,9-9.57,11.89s-6.47,5.61-5,10.25,2.92,10.12,6.1,13.66c7.1,7.89,15.17,14.93,23.07,22.08,2.91,2.62,4.44,4.59,2,8.65-4.43,7.39-8.07,15.25-12.26,22.79-2.44,4.38-2.5,8.46,2.09,10.81,7.59,3.89,15.27,8.21,23.44,10.17,8.64,2.08,15.34,6.37,21.86,11.82C1159.35,694.21,1162.5,693.51,1166.59,686.27Zm-37.19-30.51c-3.44-7.56.78-11.59,3.9-15.78.42-.56,2.77.32,5.12.67Z"/><path class="f155e4d9-9102-4097-9bcd-3fec9834b809" d="M1306,804.84a49,49,0,0,0-29.39-15.7c.12-.8,0-1.43.27-1.74a32.72,32.72,0,0,0,.18-42.47c-13.69-15.61-22.54-21.65-41.64-15.73-6.8,2.11-14.78,7.53-22.77,1.08-.85-.69-4.77.66-5.65,2.08-3.17,5.07-6.29,10.35-8.22,16-3.27,9.59-5.67,19.47-8.36,29.25-2.61,9.49-.92,12.08,9,13.44.67,3.24,1.41,6.61,2.06,10,3.85,20.16,6.82,40.55,11.8,60.44,3.65,14.6,9.71,28.64,15.3,42.69.85,2.13,4.89,3.26,7.67,4.27,1.66.61,3.89-.39,5.59.17,10.69,3.53,20.73,1.6,29.94-4.07a109.64,109.64,0,0,0,43.86-51C1323.31,835.59,1319.11,819.14,1306,804.84Zm-68.65-16.54c-11.62-.23-11.58-.23-12.83-10.52-.59-4.9-1.27-9.79-2.09-14.65-1.82-10.87,6.61-19.58,17.92-18.41,13.18,1.36,19,9.62,15.45,22.11-1.08,3.78-2.72,7.4-3.9,11.16C1249.42,785.88,1244.84,790.33,1237.33,788.3ZM1291,843.24c-3.84,12-13.23,19-24.11,23.76-7.41,3.27-15.38,5.28-23.63,8-4.26-14.62-5.58-28.11-1-41.89,3.5-10.46,11-17.09,20.48-21.07,8.55-3.59,17.42-2.26,24.07,4.67C1294.13,824.34,1294,833.83,1291,843.24Z"/><path class="f155e4d9-9102-4097-9bcd-3fec9834b809" d="M1504.92,1057.84a10.06,10.06,0,0,0,14.83-2.06,29,29,0,0,1,4.35-5.82q22-20,44.17-39.84c3.19-2.86,7.51-6.07,4.39-10.36-2-2.71-6.8-4.48-10.43-4.64-12.57-.55-25.16-.21-38.28-.21.38-5.73.66-11.08,1.1-16.42,1.56-19.14.1-38.8,8-56.93,3.4-7.82,4.78-14.69-2.89-20-5.87-4.09-9.72-11.48-18.36-11.3-29.25.57-58.51.66-87.74,1.72-7.06.25-14.16,3.1-21,5.51-5.11,1.81-5.52,9.12-1,12.11,1.58,1,3.63,1.37,5.45,2-2.91,10.43-.15,13.78,10.57,13.08,11.62-.74,23.24-1.53,34.87-2.18,15-.84,30-1.57,45.43-2.37V995.8c-7.43,0-14.33-.31-21.2.08-7.42.43-14.75-1.53-20.48,7.54s-7.3,9.1,1.41,15.89c2,1.53,3.94,3,5.85,4.58C1477.64,1035.18,1491.34,1046.44,1504.92,1057.84Zm23.8-40.92c2.31-1.88,3.52-5.56,6-6.68s6.21-.26,10.13,1.3l-21.13,11.67-1.86-3.25C1524.18,1019,1526.86,1018.45,1528.72,1016.92Z"/><path class="f155e4d9-9102-4097-9bcd-3fec9834b809" d="M1371.36,811.66c24.79.27,49.59,0,74.39.12,4.93,0,9.22-.81,10.06-6.42.79-5.29-3.18-7.44-7.39-8.74-15.07-4.67-30.14-9.48-46.29-6-2.27.49-4.66.39-7.82.63,10-22.08,19.52-43.25,29-64.44,3.74-8.34,2.39-10.93-5.47-12.76-1.86-4.75-2.76-8.58-4.76-11.71-1.88-3-4.92-5.19-7.45-7.73-2.58,2.68-6,4.93-7.56,8.11-6.23,12.88-12.44,25.83-17.55,39.19-4,10.5-6.37,21.63-9.53,32.47-2.32,8-4.78,16-7.09,24-.92,3.21-3.21,7.55-2,9.5C1363.47,810.23,1368.08,811.62,1371.36,811.66Z"/><path class="f155e4d9-9102-4097-9bcd-3fec9834b809" d="M840.91,721.9c7.15,2.74,24.59-3.8,27.74-10.69,1.08-2.36.11-6-.68-8.75-.49-1.7-2.89-2.77-3.65-4.48-12.17-27.45-31.72-50.07-48.68-74.38-1.17-1.67-3.4-2.59-5.35-4-2.09,1.13-4,1.81-5.46,3-8.62,7-17.29,14-25.61,21.34-4.23,3.73-2.92,9,2.22,11.36,1.63.75,3.58,1.41,4.65,2.71,16,19.57,31.84,39.29,47.88,58.83A17.48,17.48,0,0,0,840.91,721.9Z"/><path class="f155e4d9-9102-4097-9bcd-3fec9834b809" d="M1340.8,617.43c.61,6.57.63,12.37,1.79,17.93,1.51,7.21,5.38,9,11.75,5.45,5.57-3.12,11.56-6.38,15.65-11.08,11.19-12.85,18-25.91,3-40.59a10,10,0,0,1-2.51-4.28c-3.4-12.13-16.07-21.59-28.61-21.21-10.89.33-21.08,7.7-23,17.76C1316.22,595.14,1321.2,616.21,1340.8,617.43Z"/><path class="f155e4d9-9102-4097-9bcd-3fec9834b809" d="M984.66,604c4.79-6.17,2.89-11.58-4.84-12.84-6.79-1.11-13.8-2.58-20.51-1.89-4.61.48-9.79,3.57-12.9,7.09-1.64,1.85.61,7.14,1.07,10.67-1.94,2.58-5.64,5.43-6.49,9q-6.68,27.74-11.92,55.8c-.56,3,1,8,3.24,9.33,1.92,1.17,6.34-1.19,9.39-2.56,6.81-3.06,13.17-7.6,20.26-9.47,8.28-2.2,10.45-4.3,7.66-12.71-5-15.16-3.24-29.23,6.66-42C979,610.85,981.93,607.49,984.66,604Z"/><path class="f155e4d9-9102-4097-9bcd-3fec9834b809" d="M1086.22,821.05c-11.07-.29-21.83,11.28-22.12,23.78-.31,13.45,10.14,24.85,22.93,25,13,.18,25.24-11.14,25.8-23.85C1113.42,832.57,1101.56,821.45,1086.22,821.05Z"/><path class="f155e4d9-9102-4097-9bcd-3fec9834b809" d="M834.71,567.62c7.58,0,14.89-5.68,16.31-12.6,1.6-7.85-2-14.72-9.41-18.14-2.43-1.12-4.62-3.13-7.13-3.59-3.29-.61-7.41-1.24-10.08.18-6.73,3.57-9.45,13.48-7,21.65C819.73,562.81,826.43,567.65,834.71,567.62Z"/></g></svg>