<svg id="visual" viewBox="0 0 900 600" width="900" height="600" xmlns="http://www.w3.org/2000/svg" xmlns:xlink="http://www.w3.org/1999/xlink" version="1.1"><path d="M0 437L18.8 443.7C37.7 450.3 75.3 463.7 112.8 473.3C150.3 483 187.7 489 225.2 486.3C262.7 483.7 300.3 472.3 337.8 464.5C375.3 456.7 412.7 452.3 450.2 455C487.7 457.7 525.3 467.3 562.8 466.3C600.3 465.3 637.7 453.7 675.2 452.5C712.7 451.3 750.3 460.7 787.8 466C825.3 471.3 862.7 472.7 881.3 473.3L900 474L900 601L881.3 601C862.7 601 825.3 601 787.8 601C750.3 601 712.7 601 675.2 601C637.7 601 600.3 601 562.8 601C525.3 601 487.7 601 450.2 601C412.7 601 375.3 601 337.8 601C300.3 601 262.7 601 225.2 601C187.7 601 150.3 601 112.8 601C75.3 601 37.7 601 18.8 601L0 601Z" fill="#404246"></path><path d="M0 502L18.8 503.7C37.7 505.3 75.3 508.7 112.8 514.3C150.3 520 187.7 528 225.2 531C262.7 534 300.3 532 337.8 526C375.3 520 412.7 510 450.2 510.8C487.7 511.7 525.3 523.3 562.8 521.8C600.3 520.3 637.7 505.7 675.2 499.2C712.7 492.7 750.3 494.3 787.8 495.2C825.3 496 862.7 496 881.3 496L900 496L900 601L881.3 601C862.7 601 825.3 601 787.8 601C750.3 601 712.7 601 675.2 601C637.7 601 600.3 601 562.8 601C525.3 601 487.7 601 450.2 601C412.7 601 375.3 601 337.8 601C300.3 601 262.7 601 225.2 601C187.7 601 150.3 601 112.8 601C75.3 601 37.7 601 18.8 601L0 601Z" fill="#35373b"></path><path d="M0 532L18.8 532C37.7 532 75.3 532 112.8 537C150.3 542 187.7 552 225.2 558.8C262.7 565.7 300.3 569.3 337.8 572.8C375.3 576.3 412.7 579.7 450.2 579.3C487.7 579 525.3 575 562.8 570C600.3 565 637.7 559 675.2 555.2C712.7 551.3 750.3 549.7 787.8 549.5C825.3 549.3 862.7 550.7 881.3 551.3L900 552L900 601L881.3 601C862.7 601 825.3 601 787.8 601C750.3 601 712.7 601 675.2 601C637.7 601 600.3 601 562.8 601C525.3 601 487.7 601 450.2 601C412.7 601 375.3 601 337.8 601C300.3 601 262.7 601 225.2 601C187.7 601 150.3 601 112.8 601C75.3 601 37.7 601 18.8 601L0 601Z" fill="#2a2c30"></path></svg>