<svg id="a166f735-eb9b-42aa-8cc0-1864486ad97a" data-name="Layer 1" xmlns="http://www.w3.org/2000/svg" viewBox="0 0 1440 300"><defs><style>.ebd56a8e-2f16-47b4-bb8c-14688b3d2da0{fill:#313439;}.f23d1cee-1d34-4a20-b6ae-cf394dc5ada4{fill:#2d3035;}.b01e5d1f-1841-448b-8aea-e108af4c31f5{fill:#2a2c30;}</style></defs><path class="ebd56a8e-2f16-47b4-bb8c-14688b3d2da0" d="M0,0C110.56,16.27,202.68,24,265.91,28.11c195.65,12.62,266.48-.83,448.84,23.09,81.72,10.71,87.79,16.07,152,21.08,116.4,9.07,205.09-.09,296.9-10A2439.77,2439.77,0,0,0,1440,15.94V300H0Z"/><path class="f23d1cee-1d34-4a20-b6ae-cf394dc5ada4" d="M1440,37.68a1737.71,1737.71,0,0,1-365.5,56.68c-147.92,6.93-257.82-7.15-307.89-13C605.32,62.31,360,45.23,0,57.21V300H1440Z"/><path class="b01e5d1f-1841-448b-8aea-e108af4c31f5" d="M0,106.83C192,73.67,348.2,69.88,452.84,72.2c248.09,5.49,357.16,48.6,586.8,41.15A1725.51,1725.51,0,0,0,1440,52.62V300H0Z"/></svg>