<svg id="b2f8d09d-a02e-4f7d-beb9-74b777257513" data-name="Layer 1" xmlns="http://www.w3.org/2000/svg" xmlns:xlink="http://www.w3.org/1999/xlink" viewBox="0 0 300 300"><defs><style>.ab1680e9-ff93-4a91-bc45-cb131ddaf49b{fill:none;}.ada78102-a9d8-483c-8353-e4b469c60eca{fill:#5a7bbb;}.beb5a52a-ec77-4cf2-b6ef-3de2232c2a9d{fill:#335487;}.ba53b4a5-8b09-4fd3-8f15-eb5b1a46937b{fill:#fff;}.a5d2e0e0-ee0e-49cb-bb6d-bc2dab5c0ae6{clip-path:url(#abf58376-1341-48a9-a276-a2c44d1c96c5);}.f39791a7-8d97-48fa-a6e1-04e9f6f86ed6{fill:#36393f;}.e6cb0620-5ca2-4ffb-846a-5ae4e9aa0665{fill:#393e49;}</style><clipPath id="abf58376-1341-48a9-a276-a2c44d1c96c5"><rect class="ab1680e9-ff93-4a91-bc45-cb131ddaf49b" x="-1531.23" y="419.11" width="1440" height="900"/></clipPath></defs><path class="ada78102-a9d8-483c-8353-e4b469c60eca" d="M300,19.69V150H150V0H280.31A19.68,19.68,0,0,1,300,19.69Z"/><path class="beb5a52a-ec77-4cf2-b6ef-3de2232c2a9d" d="M300,150V280.31A19.68,19.68,0,0,1,280.31,300H150V150Z"/><path class="ada78102-a9d8-483c-8353-e4b469c60eca" d="M150,150V300H19.69A19.67,19.67,0,0,1,0,280.31V150Z"/><path class="beb5a52a-ec77-4cf2-b6ef-3de2232c2a9d" d="M150,0V150H0V19.69A19.67,19.67,0,0,1,19.69,0Z"/><rect class="ba53b4a5-8b09-4fd3-8f15-eb5b1a46937b" x="64.72" y="38.52" width="20.55" height="72.95"/><rect class="ba53b4a5-8b09-4fd3-8f15-eb5b1a46937b" x="64.72" y="38.52" width="20.55" height="72.94" transform="translate(149.99 0) rotate(90)"/><polygon class="ba53b4a5-8b09-4fd3-8f15-eb5b1a46937b" points="111.47 64.73 111.47 85.27 85.26 85.27 85.26 111.48 64.73 111.48 64.73 85.27 38.52 85.27 38.52 64.73 64.73 64.73 64.73 38.52 85.26 38.52 85.26 64.73 111.47 64.73"/><rect class="ba53b4a5-8b09-4fd3-8f15-eb5b1a46937b" x="214.72" y="38.52" width="20.55" height="72.94" transform="translate(299.99 -150) rotate(90)"/><rect class="ba53b4a5-8b09-4fd3-8f15-eb5b1a46937b" x="214.72" y="179.67" width="20.55" height="61.39" transform="translate(435.36 -14.63) rotate(90)"/><rect class="ba53b4a5-8b09-4fd3-8f15-eb5b1a46937b" x="214.72" y="208.95" width="20.55" height="61.39" transform="translate(464.64 14.65) rotate(90)"/><polygon class="ba53b4a5-8b09-4fd3-8f15-eb5b1a46937b" points="89.54 225.01 108.05 243.52 93.52 258.05 75 239.54 56.48 258.05 41.94 243.52 60.47 225.01 41.94 206.48 56.48 191.95 75 210.48 93.52 191.95 108.05 206.48 89.54 225.01"/><g class="a5d2e0e0-ee0e-49cb-bb6d-bc2dab5c0ae6"><rect class="f39791a7-8d97-48fa-a6e1-04e9f6f86ed6" x="-1710.37" y="10.31" width="1863.96" height="1863.96"/><path class="e6cb0620-5ca2-4ffb-846a-5ae4e9aa0665" d="M94.61,210.35c13.66-18.4,33.11-20.09,51-5.82,2.48,2,5.29,3.53,8,5.28V189c-12.62-12.15-27.53-18.47-45.15-16.56C53.81,178.34,31.63,243.51,52.38,282c8.79,16.33,24.86,24,41,30.12,21.19,8.08,41.37,3.11,60.2-8.55V275.31c-4.22,2.45-8.47,4.85-12.66,7.34-16.86,10-35.81,8.47-50.8-4.28A74.78,74.78,0,0,1,82.78,271c-8.07-9-11.48-19-5.28-30.48C83,230.37,87.77,219.58,94.61,210.35Z"/><path class="e6cb0620-5ca2-4ffb-846a-5ae4e9aa0665" d="M21.06,109.81a138.82,138.82,0,0,1,25.69,8.63c5.91,2.73,9,1.54,12.29-3.44,3-4.65,6.09-9.49,10.05-13.31C84.21,87.07,99.81,72.94,115,58.39c8-7.62,8.13-16.33,1.17-24.31S102.41,18.23,95.52,10.31H73.19c1.5,4.31,3,8.61,5.11,14.64a69.2,69.2,0,0,0-7.87,1.74c-2.61.85-6,1.62-7.4,3.59q-24.48,33-48.33,66.55C10,103.48,13,107.85,21.06,109.81ZM36.38,94.45c5.27,3.89,9.11,2.46,12.24-2.66C53,84.67,57.26,77.52,63,71.07l-14.88,31L32.2,96.51l-.3-1.83C33.42,94.57,35.45,93.77,36.38,94.45Z"/><path class="e6cb0620-5ca2-4ffb-846a-5ae4e9aa0665" d="M-31.61,72.11c2.55,1.12,5.45,1.73,7.6,3.36,5.2,3.94,8.78,3.88,12.2-1.88C2.93,48.72,22.2,28,44.9,10.31H-37C-44.69,18.63-52.34,27-60.14,35.26-64,39.31-64.38,43.09-61,47.8A70.34,70.34,0,0,0-31.61,72.11Z"/><path class="e6cb0620-5ca2-4ffb-846a-5ae4e9aa0665" d="M-3.27,200.32c1.91,1.75,6.52,2.67,8.79,1.55,9.42-4.65,14.77-18.67,12.44-30.33-2.18-10.92-15.16-24.79-24.1-25.77-9.09-1-17.39,3.47-20,10.77-1.89,5.23,3.47,23,7.93,25.43A8.86,8.86,0,0,0-12.54,183c5.6-1.4,11.07-3.32,19.15-5.84C2.79,182.93-.63,187.24-3,192.07-4.2,194.43-4.64,199.07-3.27,200.32Z"/></g></svg>